<?xml version="1.0" encoding="iso-8859-1"?>
<!-- Generator: Adobe Illustrator 19.0.0, SVG Export Plug-In . SVG Version: 6.00 Build 0)  -->
<svg xmlns="http://www.w3.org/2000/svg" xmlns:xlink="http://www.w3.org/1999/xlink" version="1.1" id="Layer_1" x="0px" y="0px" viewBox="0 0 512 512" style="enable-background:new 0 0 512 512;" xml:space="preserve">
<g>
	<g>
		<polygon points="478.609,139.13 478.609,439.652 33.391,439.652 33.391,139.13 0,139.13 0,473.043 512,473.043 512,139.13   "/>
	</g>
</g>
<g>
	<g>
		<rect x="189.217" y="150.261" width="133.565" height="33.391"/>
	</g>
</g>
<g>
	<g>
		<rect x="189.217" y="384" width="133.565" height="33.391"/>
	</g>
</g>
<g>
	<g>
		<rect x="356.174" y="217.043" width="33.391" height="133.565"/>
	</g>
</g>
<g>
	<g>
		<rect x="122.435" y="217.043" width="33.391" height="133.565"/>
	</g>
</g>
<g>
	<g>
		<rect x="155.826" y="183.652" width="33.391" height="33.391"/>
	</g>
</g>
<g>
	<g>
		<rect x="322.783" y="183.652" width="33.391" height="33.391"/>
	</g>
</g>
<g>
	<g>
		<rect x="155.826" y="350.609" width="33.391" height="33.391"/>
	</g>
</g>
<g>
	<g>
		<rect x="322.783" y="350.609" width="33.391" height="33.391"/>
	</g>
</g>
<g>
	<g>
		<rect x="144.696" y="72.348" width="33.391" height="33.391"/>
	</g>
</g>
<g>
	<g>
		<rect x="333.913" y="72.348" width="33.391" height="33.391"/>
	</g>
</g>
<g>
	<g>
		<rect x="33.391" y="105.739" width="111.304" height="33.391"/>
	</g>
</g>
<g>
	<g>
		<rect x="367.304" y="105.739" width="111.304" height="33.391"/>
	</g>
</g>
<g>
	<g>
		<rect x="178.087" y="38.957" width="155.826" height="33.391"/>
	</g>
</g>
<g>
</g>
<g>
</g>
<g>
</g>
<g>
</g>
<g>
</g>
<g>
</g>
<g>
</g>
<g>
</g>
<g>
</g>
<g>
</g>
<g>
</g>
<g>
</g>
<g>
</g>
<g>
</g>
<g>
</g>
</svg>
