<?xml version="1.0" encoding="iso-8859-1"?>
<!-- Generator: Adobe Illustrator 19.0.0, SVG Export Plug-In . SVG Version: 6.00 Build 0)  -->
<svg xmlns="http://www.w3.org/2000/svg" xmlns:xlink="http://www.w3.org/1999/xlink" version="1.1" id="Layer_1" x="0px" y="0px" viewBox="0 0 512 512" style="enable-background:new 0 0 512 512;" xml:space="preserve">
<g>
	<g>
		<polygon points="411.826,411.826 411.826,445.217 445.217,445.217 445.217,478.609 478.609,478.609 478.609,445.217     478.609,411.826   "/>
	</g>
</g>
<g>
	<g>
		<rect x="211.478" y="144.696" width="33.391" height="66.783"/>
	</g>
</g>
<g>
	<g>
		<rect x="178.087" y="211.478" width="33.391" height="33.391"/>
	</g>
</g>
<g>
	<g>
		<rect x="178.087" y="478.609" width="267.13" height="33.391"/>
	</g>
</g>
<g>
	<g>
		<path d="M178.087,278.261V244.87h-33.391h-33.391H33.391H0v33.391v166.957v33.391h111.304h33.391h33.391v-33.391h-33.391V278.261    H178.087z M111.304,445.217H33.391V278.261h77.913V445.217z"/>
	</g>
</g>
<g>
	<g>
		<polygon points="278.261,0 244.87,0 244.87,144.696 278.261,144.696 278.261,33.391 345.043,33.391 345.043,0   "/>
	</g>
</g>
<g>
	<g>
		<polygon points="478.609,211.478 478.609,256 411.826,256 411.826,289.391 478.609,289.391 478.609,333.913 411.826,333.913     411.826,367.304 478.609,367.304 478.609,411.826 512,411.826 512,211.478   "/>
	</g>
</g>
<g>
	<g>
		<polygon points="378.435,178.087 378.435,33.391 345.043,33.391 345.043,178.087 345.043,211.478 378.435,211.478     478.609,211.478 478.609,178.087   "/>
	</g>
</g>
<g>
</g>
<g>
</g>
<g>
</g>
<g>
</g>
<g>
</g>
<g>
</g>
<g>
</g>
<g>
</g>
<g>
</g>
<g>
</g>
<g>
</g>
<g>
</g>
<g>
</g>
<g>
</g>
<g>
</g>
</svg>
