<?xml version="1.0" encoding="iso-8859-1"?>
<!-- Generator: Adobe Illustrator 19.0.0, SVG Export Plug-In . SVG Version: 6.00 Build 0)  -->
<svg xmlns="http://www.w3.org/2000/svg" xmlns:xlink="http://www.w3.org/1999/xlink" version="1.1" id="Layer_1" x="0px" y="0px" viewBox="0 0 512 512" style="enable-background:new 0 0 512 512;" xml:space="preserve">
<g>
	<g>
		<rect x="100.174" y="478.609" width="311.652" height="33.391"/>
	</g>
</g>
<g>
	<g>
		<rect x="33.391" y="345.043" width="33.391" height="66.783"/>
	</g>
</g>
<g>
	<g>
		<rect x="66.783" y="411.826" width="33.391" height="66.783"/>
	</g>
</g>
<g>
	<g>
		<rect x="445.217" y="345.043" width="33.391" height="66.783"/>
	</g>
</g>
<g>
	<g>
		<rect x="411.826" y="411.826" width="33.391" height="66.783"/>
	</g>
</g>
<g>
	<g>
		<polygon points="478.609,178.087 478.609,100.174 445.217,100.174 445.217,178.087 66.783,178.087 66.783,100.174 33.391,100.174     33.391,178.087 0,178.087 0,211.478 0,345.043 33.391,345.043 33.391,211.478 478.609,211.478 478.609,345.043 512,345.043     512,211.478 512,178.087   "/>
	</g>
</g>
<g>
	<g>
		<rect x="100.174" y="33.391" width="33.391" height="33.391"/>
	</g>
</g>
<g>
	<g>
		<rect x="66.783" y="66.783" width="33.391" height="33.391"/>
	</g>
</g>
<g>
	<g>
		<rect x="133.565" width="244.87" height="33.391"/>
	</g>
</g>
<g>
	<g>
		<rect x="378.435" y="33.391" width="33.391" height="33.391"/>
	</g>
</g>
<g>
	<g>
		<rect x="411.826" y="66.783" width="33.391" height="33.391"/>
	</g>
</g>
<g>
	<g>
		<rect x="233.739" y="278.261" width="33.391" height="166.957"/>
	</g>
</g>
<g>
	<g>
		<rect x="111.304" y="289.391" width="33.391" height="66.783"/>
	</g>
</g>
<g>
	<g>
		<rect x="144.696" y="356.174" width="33.391" height="66.783"/>
	</g>
</g>
<g>
	<g>
		<rect x="356.174" y="289.391" width="33.391" height="66.783"/>
	</g>
</g>
<g>
	<g>
		<rect x="322.783" y="356.174" width="33.391" height="66.783"/>
	</g>
</g>
<g>
</g>
<g>
</g>
<g>
</g>
<g>
</g>
<g>
</g>
<g>
</g>
<g>
</g>
<g>
</g>
<g>
</g>
<g>
</g>
<g>
</g>
<g>
</g>
<g>
</g>
<g>
</g>
<g>
</g>
</svg>
