<?xml version="1.0" encoding="iso-8859-1"?>
<!-- Generator: Adobe Illustrator 19.0.0, SVG Export Plug-In . SVG Version: 6.00 Build 0)  -->
<svg xmlns="http://www.w3.org/2000/svg" xmlns:xlink="http://www.w3.org/1999/xlink" version="1.1" id="Layer_1" x="0px" y="0px" viewBox="0 0 512 512" style="enable-background:new 0 0 512 512;" xml:space="preserve">
<g>
	<g>
		<polygon points="133.565,367.304 100.174,367.304 100.174,400.696 100.174,467.478 133.565,467.478 133.565,400.696     200.348,400.696 200.348,367.304   "/>
	</g>
</g>
<g>
	<g>
		<rect x="133.565" y="467.478" width="66.783" height="33.391"/>
	</g>
</g>
<g>
	<g>
		<polygon points="278.261,400.696 233.739,400.696 200.348,400.696 200.348,467.478 233.739,467.478 233.739,434.087     278.261,434.087 278.261,467.478 311.652,467.478 311.652,400.696   "/>
	</g>
</g>
<g>
	<g>
		<rect x="311.652" y="467.478" width="66.783" height="33.391"/>
	</g>
</g>
<g>
	<g>
		<rect x="411.826" y="44.522" width="33.391" height="33.391"/>
	</g>
</g>
<g>
	<g>
		<polygon points="378.435,77.913 378.435,111.304 33.391,111.304 0,111.304 0,144.696 0,267.13 33.391,267.13 33.391,144.696     378.435,144.696 378.435,367.304 311.652,367.304 311.652,400.696 378.435,400.696 378.435,467.478 411.826,467.478     411.826,400.696 411.826,111.304 411.826,77.913   "/>
	</g>
</g>
<g>
	<g>
		<rect x="445.217" y="11.13" width="66.783" height="33.391"/>
	</g>
</g>
<g>
	<g>
		<rect x="66.783" y="333.913" width="33.391" height="33.391"/>
	</g>
</g>
<g>
	<g>
		<rect x="33.391" y="267.13" width="33.391" height="66.783"/>
	</g>
</g>
<g>
</g>
<g>
</g>
<g>
</g>
<g>
</g>
<g>
</g>
<g>
</g>
<g>
</g>
<g>
</g>
<g>
</g>
<g>
</g>
<g>
</g>
<g>
</g>
<g>
</g>
<g>
</g>
<g>
</g>
</svg>
