<?xml version="1.0" encoding="iso-8859-1"?>
<!-- Generator: Adobe Illustrator 19.0.0, SVG Export Plug-In . SVG Version: 6.00 Build 0)  -->
<svg xmlns="http://www.w3.org/2000/svg" xmlns:xlink="http://www.w3.org/1999/xlink" version="1.1" id="Layer_1" x="0px" y="0px" viewBox="0 0 512 512" style="enable-background:new 0 0 512 512;" xml:space="preserve">
<g>
	<g>
		<rect x="33.391" y="139.13" width="33.391" height="133.565"/>
	</g>
</g>
<g>
	<g>
		<rect x="267.13" y="139.13" width="33.391" height="133.565"/>
	</g>
</g>
<g>
	<g>
		<rect x="100.174" y="72.348" width="133.565" height="33.391"/>
	</g>
</g>
<g>
	<g>
		<rect x="66.783" y="105.739" width="33.391" height="33.391"/>
	</g>
</g>
<g>
	<g>
		<rect x="233.739" y="105.739" width="33.391" height="33.391"/>
	</g>
</g>
<g>
	<g>
		<polygon points="233.739,272.696 233.739,306.087 200.348,306.087 200.348,339.478 233.739,339.478 267.13,339.478     267.13,306.087 267.13,272.696   "/>
	</g>
</g>
<g>
	<g>
		<rect x="33.391" y="339.478" width="33.391" height="33.391"/>
	</g>
</g>
<g>
	<g>
		<rect x="267.13" y="339.478" width="33.391" height="33.391"/>
	</g>
</g>
<g>
	<g>
		<polygon points="300.522,372.87 300.522,439.652 33.391,439.652 33.391,372.87 0,372.87 0,439.652 0,473.043 33.391,473.043     300.522,473.043 333.913,473.043 333.913,439.652 333.913,372.87   "/>
	</g>
</g>
<g>
	<g>
		<polygon points="100.174,306.087 100.174,272.696 66.783,272.696 66.783,306.087 66.783,339.478 100.174,339.478 133.565,339.478     133.565,306.087   "/>
	</g>
</g>
<g>
	<g>
		<rect x="445.217" y="105.739" width="33.391" height="133.565"/>
	</g>
</g>
<g>
	<g>
		<rect x="278.261" y="38.957" width="133.565" height="33.391"/>
	</g>
</g>
<g>
	<g>
		<rect x="411.826" y="72.348" width="33.391" height="33.391"/>
	</g>
</g>
<g>
	<g>
		<polygon points="411.826,239.304 411.826,272.696 378.435,272.696 378.435,306.087 411.826,306.087 445.217,306.087     445.217,272.696 445.217,239.304   "/>
	</g>
</g>
<g>
	<g>
		<rect x="445.217" y="306.087" width="33.391" height="33.391"/>
	</g>
</g>
<g>
	<g>
		<polygon points="478.609,339.478 478.609,406.261 367.304,406.261 367.304,439.652 478.609,439.652 512,439.652 512,406.261     512,339.478   "/>
	</g>
</g>
<g>
</g>
<g>
</g>
<g>
</g>
<g>
</g>
<g>
</g>
<g>
</g>
<g>
</g>
<g>
</g>
<g>
</g>
<g>
</g>
<g>
</g>
<g>
</g>
<g>
</g>
<g>
</g>
<g>
</g>
</svg>
