<?xml version="1.0" encoding="iso-8859-1"?>
<!-- Generator: Adobe Illustrator 19.0.0, SVG Export Plug-In . SVG Version: 6.00 Build 0)  -->
<svg xmlns="http://www.w3.org/2000/svg" xmlns:xlink="http://www.w3.org/1999/xlink" version="1.1" id="Layer_1" x="0px" y="0px" viewBox="0 0 512 512" style="enable-background:new 0 0 512 512;" xml:space="preserve">
<g>
	<g>
		<rect y="411.826" width="33.391" height="66.783"/>
	</g>
</g>
<g>
	<g>
		<polygon points="100.174,100.174 100.174,311.652 100.174,345.043 133.565,345.043 133.565,311.652 133.565,100.174   "/>
	</g>
</g>
<g>
	<g>
		<rect x="66.783" y="345.043" width="33.391" height="33.391"/>
	</g>
</g>
<g>
	<g>
		<rect x="33.391" y="378.435" width="33.391" height="33.391"/>
	</g>
</g>
<g>
	<g>
		<rect x="33.391" y="478.609" width="66.783" height="33.391"/>
	</g>
</g>
<g>
	<g>
		<polygon points="200.348,378.435 166.957,378.435 166.957,411.826 200.348,411.826 411.826,411.826 411.826,378.435   "/>
	</g>
</g>
<g>
	<g>
		<rect x="133.565" y="411.826" width="33.391" height="33.391"/>
	</g>
</g>
<g>
	<g>
		<rect x="100.174" y="445.217" width="33.391" height="33.391"/>
	</g>
</g>
<g>
	<g>
		<rect x="478.609" y="100.174" width="33.391" height="211.478"/>
	</g>
</g>
<g>
	<g>
		<rect x="200.348" width="211.478" height="33.391"/>
	</g>
</g>
<g>
	<g>
		<rect x="133.565" y="66.783" width="33.391" height="33.391"/>
	</g>
</g>
<g>
	<g>
		<rect x="166.957" y="33.391" width="33.391" height="33.391"/>
	</g>
</g>
<g>
	<g>
		<rect x="411.826" y="33.391" width="33.391" height="33.391"/>
	</g>
</g>
<g>
	<g>
		<rect x="445.217" y="66.783" width="33.391" height="33.391"/>
	</g>
</g>
<g>
	<g>
		<rect x="445.217" y="311.652" width="33.391" height="33.391"/>
	</g>
</g>
<g>
	<g>
		<rect x="411.826" y="345.043" width="33.391" height="33.391"/>
	</g>
</g>
<g>
	<g>
		<path d="M389.565,155.826h-33.391v-33.391V89.044h-33.391h-33.391H256v33.391v33.391h-33.391h-33.391v33.391v33.391V256h33.391    H256v33.391v33.391h33.391h33.391h33.391v-33.391V256h33.391h33.391v-33.391v-33.391v-33.391H389.565z M389.565,222.609h-33.391    h-33.391V256v33.391h-33.391V256v-33.391H256h-33.391v-33.391H256h33.391v-33.391v-33.391h33.391v33.391v33.391h33.391h33.391    V222.609z"/>
	</g>
</g>
<g>
</g>
<g>
</g>
<g>
</g>
<g>
</g>
<g>
</g>
<g>
</g>
<g>
</g>
<g>
</g>
<g>
</g>
<g>
</g>
<g>
</g>
<g>
</g>
<g>
</g>
<g>
</g>
<g>
</g>
</svg>
