<?xml version="1.0" encoding="iso-8859-1"?>
<!-- Generator: Adobe Illustrator 19.0.0, SVG Export Plug-In . SVG Version: 6.00 Build 0)  -->
<svg xmlns="http://www.w3.org/2000/svg" xmlns:xlink="http://www.w3.org/1999/xlink" version="1.1" id="Layer_1" x="0px" y="0px" viewBox="0 0 512 512" style="enable-background:new 0 0 512 512;" xml:space="preserve">
<g>
	<g>
		<rect x="122.435" y="66.783" width="33.391" height="33.391"/>
	</g>
</g>
<g>
	<g>
		<rect x="155.826" y="33.391" width="33.391" height="33.391"/>
	</g>
</g>
<g>
	<g>
		<polygon points="422.957,345.043 422.957,100.174 389.565,100.174 389.565,345.043 122.435,345.043 122.435,100.174     89.044,100.174 89.044,345.043 66.783,345.043 66.783,378.435 445.217,378.435 445.217,345.043   "/>
	</g>
</g>
<g>
	<g>
		<rect x="200.348" y="478.609" width="111.304" height="33.391"/>
	</g>
</g>
<g>
	<g>
		<rect x="189.217" width="133.565" height="33.391"/>
	</g>
</g>
<g>
	<g>
		<rect x="356.174" y="66.783" width="33.391" height="33.391"/>
	</g>
</g>
<g>
	<g>
		<rect x="322.783" y="33.391" width="33.391" height="33.391"/>
	</g>
</g>
<g>
	<g>
		<polygon points="445.217,378.435 445.217,411.826 66.783,411.826 66.783,378.435 33.391,378.435 33.391,445.217 166.957,445.217     166.957,478.609 200.348,478.609 200.348,445.217 311.652,445.217 311.652,478.609 345.043,478.609 345.043,445.217     478.609,445.217 478.609,378.435   "/>
	</g>
</g>
<g>
</g>
<g>
</g>
<g>
</g>
<g>
</g>
<g>
</g>
<g>
</g>
<g>
</g>
<g>
</g>
<g>
</g>
<g>
</g>
<g>
</g>
<g>
</g>
<g>
</g>
<g>
</g>
<g>
</g>
</svg>
