<?xml version="1.0" encoding="iso-8859-1"?>
<!-- Generator: Adobe Illustrator 19.0.0, SVG Export Plug-In . SVG Version: 6.00 Build 0)  -->
<svg xmlns="http://www.w3.org/2000/svg" xmlns:xlink="http://www.w3.org/1999/xlink" version="1.1" id="Layer_1" x="0px" y="0px" viewBox="0 0 512 512" style="enable-background:new 0 0 512 512;" xml:space="preserve">
<g>
	<g>
		<rect y="166.957" width="33.391" height="178.087"/>
	</g>
</g>
<g>
	<g>
		<rect x="278.261" y="33.391" width="33.391" height="445.217"/>
	</g>
</g>
<g>
	<g>
		<rect x="33.391" y="133.565" width="77.913" height="33.391"/>
	</g>
</g>
<g>
	<g>
		<rect x="33.391" y="345.043" width="77.913" height="33.391"/>
	</g>
</g>
<g>
	<g>
		<rect x="111.304" y="100.174" width="33.391" height="33.391"/>
	</g>
</g>
<g>
	<g>
		<rect x="144.696" y="66.783" width="33.391" height="33.391"/>
	</g>
</g>
<g>
	<g>
		<rect x="178.087" y="33.391" width="33.391" height="33.391"/>
	</g>
</g>
<g>
	<g>
		<rect x="211.478" width="66.783" height="33.391"/>
	</g>
</g>
<g>
	<g>
		<rect x="111.304" y="378.435" width="33.391" height="33.391"/>
	</g>
</g>
<g>
	<g>
		<rect x="144.696" y="411.826" width="33.391" height="33.391"/>
	</g>
</g>
<g>
	<g>
		<rect x="178.087" y="445.217" width="33.391" height="33.391"/>
	</g>
</g>
<g>
	<g>
		<rect x="211.478" y="478.609" width="66.783" height="33.391"/>
	</g>
</g>
<g>
	<g>
		<rect x="478.609" y="77.913" width="33.391" height="356.174"/>
	</g>
</g>
<g>
	<g>
		<rect x="411.826" y="122.435" width="33.391" height="267.13"/>
	</g>
</g>
<g>
	<g>
		<rect x="345.043" y="178.087" width="33.391" height="155.826"/>
	</g>
</g>
<g>
</g>
<g>
</g>
<g>
</g>
<g>
</g>
<g>
</g>
<g>
</g>
<g>
</g>
<g>
</g>
<g>
</g>
<g>
</g>
<g>
</g>
<g>
</g>
<g>
</g>
<g>
</g>
<g>
</g>
</svg>
