<?xml version="1.0" encoding="iso-8859-1"?>
<!-- Generator: Adobe Illustrator 19.0.0, SVG Export Plug-In . SVG Version: 6.00 Build 0)  -->
<svg xmlns="http://www.w3.org/2000/svg" xmlns:xlink="http://www.w3.org/1999/xlink" version="1.1" id="Layer_1" x="0px" y="0px" viewBox="0 0 512 512" style="enable-background:new 0 0 512 512;" xml:space="preserve">
<g>
	<g>
		<polygon points="33.391,478.609 33.391,0 0,0 0,478.609 0,512 33.391,512 512,512 512,478.609   "/>
	</g>
</g>
<g>
	<g>
		<path d="M489.737,33.391V33.39H378.435v33.391h0.001v345.045h-0.001v33.391h0.001h33.391h44.521h33.391V33.391H489.737z     M456.348,411.826h-44.521V66.781h44.521V411.826z"/>
	</g>
</g>
<g>
	<g>
		<path d="M333.911,155.827v-0.001H222.609v33.391h0.001v222.609h-0.001v33.391h0.001h33.391h44.521h33.391v-289.39H333.911z     M300.522,411.826h-44.521V189.217h44.521V411.826z"/>
	</g>
</g>
<g>
	<g>
		<path d="M178.085,300.523v-0.001H66.783v33.391h0.001v77.913h-0.001v33.391h0.001h33.391h44.521h33.391V300.523H178.085z     M144.696,411.826h-44.521v-77.913h44.521V411.826z"/>
	</g>
</g>
<g>
</g>
<g>
</g>
<g>
</g>
<g>
</g>
<g>
</g>
<g>
</g>
<g>
</g>
<g>
</g>
<g>
</g>
<g>
</g>
<g>
</g>
<g>
</g>
<g>
</g>
<g>
</g>
<g>
</g>
</svg>
