<?xml version="1.0" encoding="iso-8859-1"?>
<!-- Generator: Adobe Illustrator 19.0.0, SVG Export Plug-In . SVG Version: 6.00 Build 0)  -->
<svg xmlns="http://www.w3.org/2000/svg" xmlns:xlink="http://www.w3.org/1999/xlink" version="1.1" id="Layer_1" x="0px" y="0px" viewBox="0 0 512 512" style="enable-background:new 0 0 512 512;" xml:space="preserve">
<g>
	<g>
		<rect x="172.522" y="200.348" width="33.391" height="244.87"/>
	</g>
</g>
<g>
	<g>
		<rect x="306.087" y="200.348" width="33.391" height="244.87"/>
	</g>
</g>
<g>
	<g>
		<path d="M350.609,66.783V33.391V0h-33.391H194.783h-33.391v33.391v33.391h-55.652v33.391h300.522V66.783H350.609z M317.217,66.783    H194.783V33.391h122.435V66.783z"/>
	</g>
</g>
<g>
	<g>
		<polygon points="439.652,133.565 439.652,100.174 406.261,100.174 406.261,133.565 105.739,133.565 105.739,100.174     72.348,100.174 72.348,133.565 38.957,133.565 38.957,166.957 72.348,166.957 72.348,478.609 105.739,478.609 105.739,166.957     406.261,166.957 406.261,478.609 439.652,478.609 439.652,166.957 473.043,166.957 473.043,133.565   "/>
	</g>
</g>
<g>
	<g>
		<rect x="105.739" y="478.609" width="300.522" height="33.391"/>
	</g>
</g>
<g>
</g>
<g>
</g>
<g>
</g>
<g>
</g>
<g>
</g>
<g>
</g>
<g>
</g>
<g>
</g>
<g>
</g>
<g>
</g>
<g>
</g>
<g>
</g>
<g>
</g>
<g>
</g>
<g>
</g>
</svg>
