<?xml version="1.0" encoding="iso-8859-1"?>
<!-- Generator: Adobe Illustrator 19.0.0, SVG Export Plug-In . SVG Version: 6.00 Build 0)  -->
<svg xmlns="http://www.w3.org/2000/svg" xmlns:xlink="http://www.w3.org/1999/xlink" version="1.1" id="Layer_1" x="0px" y="0px" viewBox="0 0 512 512" style="enable-background:new 0 0 512 512;" xml:space="preserve">
<g>
	<g>
		<path d="M478.609,0H33.391H0v33.391v66.783v33.391h33.391h445.217H512v-33.391V33.391V0H478.609z M478.609,100.174H33.391V33.391    h445.217V100.174z"/>
	</g>
</g>
<g>
	<g>
		<path d="M478.609,189.217H33.391H0v33.391v66.783v33.391h33.391h445.217H512v-33.391v-66.783v-33.391H478.609z M478.609,289.391    H33.391v-66.783h445.217V289.391z"/>
	</g>
</g>
<g>
	<g>
		<path d="M478.609,378.435H33.391H0v33.391v66.783V512h33.391h445.217H512v-33.391v-66.783v-33.391H478.609z M478.609,478.609    H33.391v-66.783h445.217V478.609z"/>
	</g>
</g>
<g>
</g>
<g>
</g>
<g>
</g>
<g>
</g>
<g>
</g>
<g>
</g>
<g>
</g>
<g>
</g>
<g>
</g>
<g>
</g>
<g>
</g>
<g>
</g>
<g>
</g>
<g>
</g>
<g>
</g>
</svg>
