<?xml version="1.0" encoding="iso-8859-1"?>
<!-- Generator: Adobe Illustrator 19.0.0, SVG Export Plug-In . SVG Version: 6.00 Build 0)  -->
<svg xmlns="http://www.w3.org/2000/svg" xmlns:xlink="http://www.w3.org/1999/xlink" version="1.1" id="Layer_1" x="0px" y="0px" viewBox="0 0 512 512" style="enable-background:new 0 0 512 512;" xml:space="preserve">
<g>
	<g>
		<rect x="267.13" y="417.391" width="33.391" height="33.391"/>
	</g>
</g>
<g>
	<g>
		<rect x="244.87" y="161.391" width="33.391" height="33.391"/>
	</g>
</g>
<g>
	<g>
		<rect x="178.087" y="261.565" width="66.783" height="33.391"/>
	</g>
</g>
<g>
	<g>
		<rect x="244.87" y="294.957" width="33.391" height="33.391"/>
	</g>
</g>
<g>
	<g>
		<rect x="144.696" y="161.391" width="33.391" height="100.174"/>
	</g>
</g>
<g>
	<g>
		<rect x="178.087" y="128" width="66.783" height="33.391"/>
	</g>
</g>
<g>
	<g>
		<rect x="278.261" y="261.565" width="66.783" height="33.391"/>
	</g>
</g>
<g>
	<g>
		<rect x="345.043" y="161.391" width="33.391" height="100.174"/>
	</g>
</g>
<g>
	<g>
		<rect x="278.261" y="128" width="66.783" height="33.391"/>
	</g>
</g>
<g>
	<g>
		<polygon points="0,27.826 0,417.391 200.348,417.391 200.348,484.174 233.739,484.174 267.13,484.174 267.13,450.783     233.739,450.783 233.739,384 33.391,384 33.391,61.217 478.609,61.217 478.609,384 300.522,384 300.522,417.391 512,417.391     512,27.826   "/>
	</g>
</g>
<g>
</g>
<g>
</g>
<g>
</g>
<g>
</g>
<g>
</g>
<g>
</g>
<g>
</g>
<g>
</g>
<g>
</g>
<g>
</g>
<g>
</g>
<g>
</g>
<g>
</g>
<g>
</g>
<g>
</g>
</svg>
